<svg width="40" height="40" viewBox="0 0 40 40" fill="none" xmlns="http://www.w3.org/2000/svg">
<path d="M17.3655 9.49156C17.3655 9.49156 8.99325 10.8041 9.62813 22.7574C9.63044 22.8017 8.6601 23.4472 8.5841 23.5162C7.90748 24.1293 7.3398 24.9146 7.09156 25.8332C6.20761 29.1042 9.36794 32.4745 11.9236 33.3692C12.8782 33.7032 13.8872 33.8655 14.8982 33.8949C21.4704 34.0867 30.1717 29.9013 30.6186 21.7275C30.6346 21.4343 30.6385 21.1407 30.631 20.8478C30.5914 19.2958 30.2175 17.7843 29.6541 16.3809C29.6543 16.3809 25.9966 7.29052 17.3655 9.49156Z" fill="#643D19"/>
<g style="mix-blend-mode:multiply" opacity="0.5">
<path d="M9.41602 22.8837C9.50671 23.1063 9.59726 23.3907 9.62257 23.5534C9.73057 24.2512 9.49234 24.9717 9.07845 25.4896C8.68547 25.9814 8.12414 26.3003 7.58057 26.4206C7.39707 26.4612 7.17486 26.482 6.98052 26.4885C7.18464 24.4678 8.82668 23.2555 9.41602 22.8837Z" fill="#FF5C3C"/>
</g>
<g style="mix-blend-mode:multiply" opacity="0.5">
<path d="M21.2176 28.1942C19.6624 27.859 18.6968 26.2173 19.0609 24.5274C19.4249 22.8375 20.9808 21.7394 22.5361 22.0746C24.0913 22.4099 25.0569 24.0516 24.6928 25.7415C24.3287 27.4313 22.7728 28.5295 21.2176 28.1942Z" fill="#FF5C3C"/>
</g>
<path opacity="0.3" d="M13.6042 23.4675C13.6042 23.4675 12.2761 22.2014 11.248 23.3918L13.6042 23.4675Z" fill="#1D0C00"/>
<path d="M25.9874 29.7762C30.4088 31.9964 34.4212 26.4296 33.1357 23.3002C32.3157 21.304 29.9251 21.1487 28.5399 22.972C27.7225 24.048 27.0611 25.4235 26.6855 26.7393" fill="#643D19"/>
<path opacity="0.3" d="M29.6289 24.8085C29.06 25.3884 28.6028 26.2485 28.0408 26.7282C28.1446 25.9254 28.3104 25.0682 28.6996 24.3447C29.0947 23.6099 29.8133 23.0047 30.5451 23.0546C31.4519 23.1165 32.1987 24.1748 32.2947 25.1342C32.2373 24.56 31.0846 24.1714 30.6446 24.2258C29.9557 25.5268 29.689 28.0911 29.689 28.0911C29.115 26.6394 29.3473 25.4976 29.6289 24.8085Z" fill="#1D0C00"/>
<mask id="mask0_2181_3131" style="mask-type:alpha" maskUnits="userSpaceOnUse" x="3" y="11" width="11" height="17">
<path d="M9.85762 18.5827C10.3165 15.1629 12.0244 12.6703 13.7131 12.3619L6.25701 11.3411L3.00691 22.8575L7.02174 27.1642C6.76683 25.1225 8.6999 23.4423 9.6983 22.8575C9.57084 22.0153 9.75141 19.6567 9.85762 18.5827Z" fill="#C4C4C4"/>
</mask>
<g mask="url(#mask0_2181_3131)">
<path d="M7.75731 21.4991C8.16383 18.0392 11.3269 16.193 12.8734 15.8976C12.5625 14.2152 11.9017 14.3186 10.5833 14.58C5.9771 15.4934 5.23145 19.5311 5.27515 21.5885C6.98944 21.8399 7.67052 21.8311 7.75731 21.4991Z" fill="#351700"/>
<ellipse cx="1.23881" cy="0.650608" rx="1.23881" ry="0.650608" transform="matrix(1.01788 -0.0478972 0.157337 0.970823 5.16992 20.9728)" fill="#451E00"/>
<path opacity="0.6" fill-rule="evenodd" clip-rule="evenodd" d="M7.76975 21.3984C8.22516 18.0035 11.3417 16.1902 12.8732 15.8978C12.9199 15.4849 11.7758 15.6711 10.5322 16.1316C7.33513 17.3153 6.45362 19.0922 6.49734 21.1496C6.50236 21.1503 6.50733 21.1511 6.51229 21.1518C6.52344 21.503 6.5568 21.9678 6.63561 22.1768C7.33202 22.144 7.85075 21.8347 7.7942 21.4858C7.7894 21.4563 7.78117 21.4271 7.76975 21.3984Z" fill="#240F00"/>
<path d="M9.28896 22.6129C9.59687 19.0959 12.6681 17.1209 14.1862 16.7702C13.8341 15.0771 13.1848 15.2038 11.891 15.5125C7.37063 16.5911 6.74365 20.7044 6.8422 22.7863C8.54048 22.9836 9.21227 22.952 9.28896 22.6129Z" fill="#351700"/>
<ellipse cx="1.22888" cy="0.655012" rx="1.22888" ry="0.655012" transform="matrix(1.01116 -0.0831476 0.180179 0.971187 6.72217 22.1663)" fill="#451E00"/>
<path opacity="0.6" fill-rule="evenodd" clip-rule="evenodd" d="M9.29904 22.5105C9.65689 19.0576 12.6832 17.1176 14.1864 16.7703C14.2213 16.3507 13.0976 16.5774 11.8829 17.0852C8.76018 18.3905 7.93822 20.2192 8.03682 22.301C8.04177 22.3015 8.04665 22.3021 8.05154 22.3027C8.07204 22.6579 8.11746 23.1275 8.20085 23.3364C8.88712 23.28 9.39067 22.9494 9.32547 22.5981C9.31995 22.5683 9.31108 22.5391 9.29904 22.5105Z" fill="#240F00"/>
<path d="M10.6877 25.148C10.0503 21.5643 12.3901 18.7274 13.711 17.9471C12.9384 16.364 12.3674 16.6747 11.2442 17.3496C7.32008 19.7075 7.81717 23.9748 8.45585 26.0163C10.0884 25.7294 10.7054 25.5069 10.6877 25.148Z" fill="#351700"/>
<ellipse cx="1.21794" cy="0.659762" rx="1.21794" ry="0.659762" transform="matrix(0.927598 -0.37358 0.419818 0.907608 8.18115 25.4341)" fill="#451E00"/>
<path opacity="0.6" fill-rule="evenodd" clip-rule="evenodd" d="M10.6699 25.0435C10.0957 21.5092 12.4029 18.7198 13.7109 17.947C13.6332 17.52 12.6468 18.065 11.6496 18.9152C9.08588 21.101 8.80126 23.1526 9.43995 25.194C9.44464 25.1932 9.44932 25.1924 9.45399 25.1916C9.56638 25.5389 9.73201 25.9927 9.86455 26.1767C10.4885 25.9254 10.8703 25.4536 10.7173 25.1229C10.7044 25.095 10.6885 25.0685 10.6699 25.0435Z" fill="#240F00"/>
<path opacity="0.5" d="M5.81224 18.4335C5.79868 18.3291 6.09106 17.7808 6.23895 17.5196L8.42008 18.3511L10.2901 20.2063C10.2503 20.9189 10.0359 22.3991 9.49716 22.6191C8.95841 22.8392 8.37985 22.757 8.04714 22.6755C7.91284 22.5057 7.68538 21.0919 7.83965 19.761C7.08002 19.6727 5.8292 18.5639 5.81224 18.4335Z" fill="#220F01"/>
<path d="M7.56214 17.4806C8.17313 14.051 11.4401 12.396 13.0014 12.1931C12.7908 10.4952 12.1251 10.5591 10.7935 10.7417C6.14125 11.3796 5.15745 15.3659 5.07905 17.4223C6.77541 17.7752 7.45582 17.8069 7.56214 17.4806Z" fill="#351700"/>
<ellipse cx="1.2388" cy="0.650616" rx="1.2388" ry="0.650616" transform="matrix(1.01894 0.0126966 0.0994825 0.978451 5.01099 16.8014)" fill="#451E00"/>
<path opacity="0.6" fill-rule="evenodd" clip-rule="evenodd" d="M7.58104 17.3806C8.23706 14.0188 11.4556 12.394 13.0016 12.1931C13.0727 11.7838 11.9197 11.9016 10.651 12.2874C7.38933 13.2789 6.40398 15.0003 6.32559 17.0567C6.33056 17.0577 6.33547 17.0588 6.34037 17.0598C6.33072 17.411 6.33637 17.877 6.40275 18.0903C7.09983 18.099 7.63597 17.821 7.60028 17.4694C7.59724 17.4396 7.59081 17.4099 7.58104 17.3806Z" fill="#240F00"/>
<path d="M9.02541 18.6834C9.54135 15.191 12.7243 13.4021 14.2605 13.1422C14.0094 11.4311 13.3538 11.519 12.044 11.7503C7.46758 12.5583 6.59777 16.6271 6.57268 18.7111C8.25626 19.009 8.92875 19.0174 9.02541 18.6834Z" fill="#351700"/>
<ellipse cx="1.22887" cy="0.655023" rx="1.22887" ry="0.655023" transform="matrix(1.01432 -0.0228915 0.122262 0.980167 6.48975 18.0851)" fill="#451E00"/>
<path opacity="0.6" fill-rule="evenodd" clip-rule="evenodd" d="M9.04146 18.5816C9.60353 15.1562 12.7394 13.3995 14.2606 13.1422C14.3204 12.7254 13.1851 12.8849 11.9425 13.3196C8.74788 14.437 7.81896 16.2135 7.79385 18.2975C7.79876 18.2984 7.80367 18.2993 7.80858 18.3002C7.80796 18.656 7.82537 19.1274 7.89633 19.341C8.58469 19.3254 9.10693 19.0254 9.06271 18.6708C9.05894 18.6407 9.05185 18.6109 9.04146 18.5816Z" fill="#240F00"/>
<path d="M10.6541 21.2972C10.2304 17.682 12.7343 14.9892 14.0991 14.2887C13.4218 12.6626 12.8333 12.9387 11.6721 13.5456C7.61507 15.6661 7.85821 19.9554 8.37468 22.0313C10.0214 21.842 10.6505 21.6565 10.6541 21.2972Z" fill="#351700"/>
<ellipse cx="1.21788" cy="0.659795" rx="1.21788" ry="0.659795" transform="matrix(0.94816 -0.317793 0.365233 0.930916 8.13477 21.4339)" fill="#451E00"/>
<path opacity="0.6" fill-rule="evenodd" clip-rule="evenodd" d="M10.6424 21.1919C10.2788 17.6297 12.7474 14.9824 14.0989 14.2887C14.0466 13.8578 13.0296 14.3432 11.9838 15.1327C9.295 17.1622 8.88921 19.1932 9.40567 21.2691C9.41045 21.2685 9.41518 21.268 9.4199 21.2675C9.51149 21.6208 9.64994 22.0837 9.77133 22.2752C10.4091 22.0615 10.8182 21.6132 10.6851 21.274C10.6738 21.2453 10.6596 21.2179 10.6424 21.1919Z" fill="#240F00"/>
<path opacity="0.5" d="M6.89426 12.6491L7.27663 12.2662V11.9791L9.061 12.5215L11.6738 16.0944L9.98505 18.2956C8.83795 18.4998 7.89266 18.1042 7.5634 17.8809L8.36 14.9141C7.5634 14.7226 7.46781 13.9251 7.43595 13.7975C7.41046 13.6954 7.57402 13.3084 7.65899 13.1276C7.48056 13.051 7.07482 12.7767 6.89426 12.6491Z" fill="#220F01"/>
</g>
<path d="M9.26605 12.8946C11.4049 10.1466 15.0657 10.2091 16.5412 10.759C17.1463 9.15889 16.5276 8.90436 15.2648 8.44381C10.8527 6.83469 8.12477 9.90079 7.09701 11.683C8.43292 12.7876 9.01994 13.1335 9.26605 12.8946Z" fill="#351700"/>
<ellipse cx="1.23909" cy="0.650489" rx="1.23909" ry="0.650489" transform="matrix(0.895085 0.487126 -0.368101 0.912055 7.32593 11.102)" fill="#451E00"/>
<path opacity="0.6" fill-rule="evenodd" clip-rule="evenodd" d="M9.32944 12.8148C11.4765 10.148 15.0803 10.2145 16.5414 10.7591C16.795 10.4303 15.7203 9.99589 14.4184 9.74432C11.0714 9.09762 9.39768 10.1598 8.36992 11.942C8.37383 11.9452 8.37774 11.9485 8.38163 11.9517C8.2094 12.2578 7.99726 12.6726 7.95652 12.8922C8.56906 13.2255 9.17281 13.2301 9.30506 12.9025C9.31629 12.8747 9.32439 12.8454 9.32944 12.8148Z" fill="#240F00"/>
<path d="M9.99925 14.6421C12.0832 11.7942 15.7322 11.6989 17.212 12.1868C17.7874 10.556 17.1666 10.3275 15.9003 9.92014C11.4761 8.49688 8.81048 11.6892 7.817 13.5207C9.16721 14.5708 9.75811 14.8923 9.99925 14.6421Z" fill="#351700"/>
<ellipse cx="1.22912" cy="0.654918" rx="1.22912" ry="0.654918" transform="matrix(0.907611 0.453514 -0.348738 0.924186 8.03516 12.9282)" fill="#451E00"/>
<path opacity="0.6" fill-rule="evenodd" clip-rule="evenodd" d="M10.0609 14.5593C12.1545 11.7923 15.7468 11.7036 17.2121 12.1867C17.4592 11.8459 16.3808 11.4567 15.0791 11.2606C11.7329 10.7565 10.0833 11.8938 9.0898 13.7253C9.09376 13.7284 9.0977 13.7315 9.10163 13.7345C8.93528 14.0489 8.73099 14.474 8.69418 14.696C9.31029 15.0039 9.91199 14.9824 10.0381 14.6482C10.0488 14.6198 10.0564 14.5901 10.0609 14.5593Z" fill="#240F00"/>
<path d="M9.8831 17.5359C11.1932 14.1404 14.6629 12.9285 16.1964 12.9465C16.3552 11.1918 15.7061 11.1611 14.3962 11.1555C9.81961 11.1357 8.03557 15.043 7.52491 17.1203C9.06959 17.7221 9.71244 17.852 9.8831 17.5359Z" fill="#351700"/>
<ellipse cx="1.21777" cy="0.65989" rx="1.21777" ry="0.65989" transform="matrix(0.98681 0.161883 -0.110813 0.993841 7.59106 16.4799)" fill="#451E00"/>
<path opacity="0.6" fill-rule="evenodd" clip-rule="evenodd" d="M9.92195 17.4371C11.2607 14.1169 14.6777 12.9287 16.1963 12.9465C16.3509 12.541 15.2252 12.4952 13.9322 12.7048C10.6082 13.2438 9.30278 14.8506 8.79208 16.9279C8.79663 16.9296 8.80112 16.9314 8.80561 16.9331C8.72198 17.2885 8.62858 17.7626 8.64671 17.9887C9.31036 18.0975 9.88116 17.8922 9.9215 17.53C9.92492 17.4993 9.92501 17.4682 9.92195 17.4371Z" fill="#240F00"/>
<path d="M32.0901 20.8486C31.2994 16.9773 27.5198 14.7911 25.7293 14.3989C25.9244 12.5372 26.6873 12.6794 28.2146 13.0245C33.5507 14.2303 34.7826 18.7592 34.9274 21.0496C32.9975 21.2597 32.2204 21.222 32.0901 20.8486Z" fill="#351700"/>
<ellipse cx="1.4475" cy="0.701826" rx="1.4475" ry="0.701826" transform="matrix(-0.996693 -0.0812574 -0.081067 0.996709 34.9888 20.3679)" fill="#451E00"/>
<path opacity="0.6" fill-rule="evenodd" clip-rule="evenodd" d="M32.0659 20.7355C31.2256 16.9347 27.5022 14.7874 25.7292 14.399C25.6369 13.9371 26.9583 14.1913 28.4192 14.7551C32.1749 16.2045 33.3477 18.2202 33.4926 20.5106C33.4869 20.5112 33.4813 20.5118 33.4756 20.5125C33.4961 20.9032 33.5021 21.4198 33.4321 21.6494C32.6353 21.5844 32.0148 21.2186 32.0462 20.8322C32.0489 20.7994 32.0555 20.7671 32.0659 20.7355Z" fill="#240F00"/>
<path d="M29.4304 22.6858C30.3071 18.8331 27.7666 15.2794 26.2977 14.1819C27.2433 12.567 27.8795 13.0119 29.1281 13.9577C33.4905 17.2621 32.7444 21.8961 31.9316 24.042C30.0872 23.4354 29.395 23.0798 29.4304 22.6858Z" fill="#351700"/>
<ellipse cx="1.4479" cy="0.701636" rx="1.4479" ry="0.701636" transform="matrix(-0.873978 -0.485965 -0.485088 0.874465 32.2688 23.4465)" fill="#451E00"/>
<path opacity="0.6" fill-rule="evenodd" clip-rule="evenodd" d="M29.4553 22.573C30.2579 18.7639 27.7525 15.2686 26.2979 14.1818C26.4044 13.723 27.503 14.5009 28.601 15.6184C31.4236 18.4912 31.6603 20.8119 30.8475 22.9578C30.8421 22.956 30.8368 22.9542 30.8314 22.9525C30.6889 23.3169 30.4813 23.7898 30.3228 23.9699C29.6239 23.5813 29.2098 22.9916 29.3977 22.6527C29.4136 22.624 29.433 22.5974 29.4553 22.573Z" fill="#240F00"/>
<path d="M26.7052 23.3956C27.6488 19.5588 25.1705 15.9613 23.7209 14.8384C24.6945 13.2402 25.3229 13.6962 26.5548 14.6636C30.8591 18.0436 30.0324 22.6639 29.1824 24.7953C27.3489 24.1565 26.663 23.789 26.7052 23.3956Z" fill="#351700"/>
<ellipse cx="1.44792" cy="0.701624" rx="1.44792" ry="0.701624" transform="matrix(-0.865375 -0.501125 -0.500239 0.865888 29.5298 24.2057)" fill="#451E00"/>
<path opacity="0.6" fill-rule="evenodd" clip-rule="evenodd" d="M26.7319 23.2835C27.6007 19.4889 25.1565 15.9504 23.721 14.8383C23.8355 14.3815 24.9204 15.1783 25.9987 16.3148C28.7709 19.2365 28.9672 21.5609 28.1172 23.6923C28.1118 23.6905 28.1065 23.6887 28.1013 23.6868C27.9524 24.0486 27.7367 24.5178 27.575 24.6951C26.883 24.2944 26.4792 23.6975 26.673 23.362C26.6894 23.3336 26.7091 23.3074 26.7319 23.2835Z" fill="#240F00"/>
<path d="M24.3014 23.9053C25.8812 20.2843 24.0482 16.3181 22.8098 14.9653C24.04 13.5556 24.582 14.1116 25.6322 15.2742C29.3017 19.336 27.7044 23.749 26.5056 25.7053C24.8069 24.7645 24.1932 24.2858 24.3014 23.9053Z" fill="#351700"/>
<ellipse cx="1.44819" cy="0.701492" rx="1.44819" ry="0.701492" transform="matrix(-0.767816 -0.64067 -0.639778 0.76856 26.9478 25.1833)" fill="#451E00"/>
<path opacity="0.6" fill-rule="evenodd" clip-rule="evenodd" d="M24.3467 23.7992C25.8455 20.2071 24.0362 16.305 22.8098 14.9653C23 14.5345 23.9342 15.5041 24.8045 16.8072C27.0417 20.1572 26.8414 22.4813 25.6427 24.4375C25.6377 24.4347 25.6327 24.432 25.6278 24.4293C25.4198 24.7606 25.1277 25.1864 24.9384 25.3337C24.3242 24.8213 24.0273 24.1645 24.2752 23.8668C24.2962 23.8415 24.3201 23.819 24.3467 23.7992Z" fill="#240F00"/>
<path d="M24.8016 22.4747C24.9036 22.2705 24.9715 21.8792 24.9928 21.709C26.8727 19.5078 30.8302 14.1357 31.2381 14.3398C31.6459 14.544 32.8525 15.7329 33.1499 16.0625L31.6204 17.0514C31.8116 17.7214 31.7479 18.8698 31.2381 19.125C30.8302 19.3292 29.8786 19.359 29.4537 19.3483L29.2944 20.3692C29.2413 20.5393 29.0267 20.9051 28.5934 21.0072C28.16 21.1093 27.4357 20.9647 27.1276 20.8796C27.1531 21.1348 26.9046 21.8792 26.7771 22.2195C26.1909 22.5002 25.2158 22.5066 24.8016 22.4747Z" fill="#220F01"/>
<path d="M30.6355 15.5236C28.8355 12.007 24.6084 10.9172 22.7784 11.0208C22.4671 9.17495 23.2401 9.10678 24.8039 9.02864C30.2674 8.75564 32.6687 12.7871 33.4225 14.9544C31.6198 15.6756 30.8612 15.8483 30.6355 15.5236Z" fill="#351700"/>
<ellipse cx="1.44755" cy="0.701802" rx="1.44755" ry="0.701802" transform="matrix(-0.981849 0.189663 0.189232 0.981932 33.2988 14.2813)" fill="#451E00"/>
<path opacity="0.6" fill-rule="evenodd" clip-rule="evenodd" d="M30.5821 15.4215C28.7533 11.9859 24.5905 10.9182 22.7784 11.0208C22.5657 10.6007 23.9067 10.4903 25.4652 10.6406C29.4717 11.0272 31.142 12.6535 31.8959 14.8209C31.8906 14.823 31.8854 14.8251 31.8802 14.8272C32.0048 15.1981 32.1491 15.6941 32.1432 15.934C31.3582 16.0857 30.6624 15.9001 30.5891 15.5195C30.5829 15.4873 30.5806 15.4545 30.5821 15.4215Z" fill="#240F00"/>
<path d="M28.5656 18.0084C28.3769 14.0615 24.9766 11.3213 23.2672 10.6589C23.7451 8.84917 24.4772 9.10669 25.9336 9.68207C31.0221 11.6924 31.5461 16.3568 31.3387 18.6424C29.3994 18.5538 28.6373 18.3974 28.5656 18.0084Z" fill="#351700"/>
<ellipse cx="1.44759" cy="0.701787" rx="1.44759" ry="0.701787" transform="matrix(-0.972425 -0.233215 -0.232694 0.97255 31.5039 17.9781)" fill="#451E00"/>
<path opacity="0.6" fill-rule="evenodd" clip-rule="evenodd" d="M28.5595 17.8931C28.3109 14.0082 24.9602 11.3148 23.2675 10.659C23.2471 10.1884 24.514 10.6423 25.8713 11.4236C29.3608 13.4322 30.2112 15.604 30.0037 17.8896C29.998 17.8893 29.9924 17.8891 29.9868 17.8888C29.9472 18.2781 29.8741 18.7895 29.7697 19.0056C28.9922 18.8191 28.4351 18.3624 28.5253 17.9855C28.5329 17.9535 28.5444 17.9227 28.5595 17.8931Z" fill="#240F00"/>
<path d="M26.1311 19.425C26.0111 15.4754 22.659 12.6763 20.9614 11.9843C21.4706 10.1831 22.1982 10.4534 23.6444 11.0541C28.6971 13.1528 29.1399 17.8257 28.8927 20.1073C26.9552 19.9849 26.196 19.8153 26.1311 19.425Z" fill="#351700"/>
<ellipse cx="1.4476" cy="0.701779" rx="1.4476" ry="0.701779" transform="matrix(-0.968211 -0.250137 -0.249583 0.968353 29.0693 19.446)" fill="#451E00"/>
<path opacity="0.6" fill-rule="evenodd" clip-rule="evenodd" d="M26.1267 19.3097C25.9458 15.421 22.6425 12.6696 20.9615 11.9843C20.9492 11.5134 22.208 11.9894 23.5515 12.7943C27.0055 14.8634 27.818 17.0497 27.5708 19.3313C27.5652 19.331 27.5595 19.3306 27.5539 19.3303C27.5075 19.7188 27.4255 20.2289 27.3174 20.4431C26.5433 20.2431 25.9942 19.7768 26.091 19.4014C26.0992 19.3696 26.1112 19.339 26.1267 19.3097Z" fill="#240F00"/>
<path d="M23.9528 20.5618C24.5035 16.6491 21.674 13.3213 20.1183 12.3511C20.9252 10.6625 21.5965 11.0524 22.9199 11.8899C27.544 14.8161 27.1889 19.4965 26.5588 21.7031C24.6701 21.2535 23.9506 20.9574 23.9528 20.5618Z" fill="#351700"/>
<ellipse cx="1.44778" cy="0.701692" rx="1.44778" ry="0.701692" transform="matrix(-0.911705 -0.410845 -0.41004 0.912068 26.8447 21.0814)" fill="#451E00"/>
<path opacity="0.6" fill-rule="evenodd" clip-rule="evenodd" d="M23.9679 20.4475C24.4483 16.5844 21.6588 13.312 20.1182 12.3512C20.1859 11.8851 21.3458 12.5679 22.5336 13.5892C25.5871 16.2148 26.0175 18.5073 25.3874 20.7139C25.3819 20.7126 25.3764 20.7113 25.3709 20.71C25.2595 21.0851 25.0922 21.5738 24.9494 21.7666C24.2204 21.4381 23.7582 20.8853 23.9172 20.5318C23.9306 20.5019 23.9476 20.4737 23.9679 20.4475Z" fill="#240F00"/>
<path d="M28.5298 9.8417C28.3514 9.73961 27.7544 9.56522 27.4783 9.49078L23.4953 16.2858C23.8267 16.6941 23.9945 18.0085 24.037 18.6146C24.9929 18.5189 25.9807 17.9128 26.14 17.5937C26.2675 17.3385 25.4071 15.5414 24.9611 14.8821C26.3312 15.0097 27.0003 14.2122 27.1597 13.8294C27.2871 13.5231 26.926 12.9149 26.6498 12.4576C28.3068 11.8706 28.5935 10.4691 28.5298 9.8417Z" fill="#220F01"/>
<path d="M25.5878 11.6861C22.5412 9.17418 18.2294 9.85442 16.5909 10.6769C15.5731 9.10664 16.2556 8.73677 17.6597 8.04341C22.5658 5.6209 26.3686 8.36629 27.92 10.0558C26.5515 11.4344 25.9237 11.8944 25.5878 11.6861Z" fill="#351700"/>
<ellipse cx="1.44804" cy="0.701568" rx="1.44804" ry="0.701568" transform="matrix(-0.825635 0.564204 0.563296 0.826255 27.5396 9.48712)" fill="#451E00"/>
<path opacity="0.6" fill-rule="evenodd" clip-rule="evenodd" d="M25.4986 11.6135C22.4576 9.1875 18.2137 9.86247 16.5912 10.677C16.2294 10.3759 17.4164 9.74153 18.9064 9.25998C22.7368 8.022 24.9148 8.85062 26.4662 10.5401C26.4623 10.5441 26.4583 10.5482 26.4543 10.5522C26.7157 10.8431 27.0449 11.2409 27.1346 11.4635C26.4743 11.9147 25.7621 12.0209 25.5439 11.7008C25.5254 11.6737 25.5103 11.6445 25.4986 11.6135Z" fill="#240F00"/>
<path d="M24.4718 14.2245C21.715 11.3968 17.3549 11.6052 15.6371 12.2451C14.7953 10.5736 15.5138 10.2799 16.9847 9.74302C22.1241 7.86711 25.6073 11.0089 26.9667 12.8568C25.457 14.0788 24.7832 14.468 24.4718 14.2245Z" fill="#351700"/>
<ellipse cx="1.44787" cy="0.701648" rx="1.44787" ry="0.701648" transform="matrix(-0.881947 0.471349 0.470484 0.882409 26.6499 12.2502)" fill="#451E00"/>
<path opacity="0.6" fill-rule="evenodd" clip-rule="evenodd" d="M24.3907 14.1427C21.6303 11.401 17.3382 11.6115 15.6371 12.2451C15.31 11.9066 16.5587 11.4047 18.092 11.0877C22.0339 10.2726 24.1094 11.3327 25.4688 13.1806C25.4644 13.1841 25.46 13.1877 25.4557 13.1912C25.6841 13.5088 25.9682 13.94 26.0333 14.171C25.3281 14.5479 24.6086 14.5763 24.4263 14.2343C24.4109 14.2054 24.399 14.1748 24.3907 14.1427Z" fill="#240F00"/>
<path d="M23.3997 17.3385C21.5134 13.8676 17.2606 12.8829 15.4338 13.0318C15.0769 11.1943 15.848 11.107 17.4093 10.9901C22.8644 10.5818 25.3647 14.5524 26.1719 16.7005C24.3875 17.4661 23.6334 17.6575 23.3997 17.3385Z" fill="#351700"/>
<ellipse cx="1.44757" cy="0.701794" rx="1.44757" ry="0.701794" transform="matrix(-0.976847 0.213938 0.213456 0.976953 26.0317 16.0305)" fill="#451E00"/>
<path opacity="0.6" fill-rule="evenodd" clip-rule="evenodd" d="M23.3437 17.2376C21.4305 13.8485 17.2427 12.8844 15.4337 13.0318C15.2106 12.6171 16.5485 12.4735 18.1102 12.5852C22.1251 12.8723 23.8351 14.4567 24.6423 16.6048C24.6371 16.607 24.6319 16.6092 24.6268 16.6115C24.7604 16.9792 24.917 17.4714 24.917 17.7115C24.136 17.8825 23.4359 17.7142 23.3531 17.3356C23.3461 17.3035 23.343 17.2707 23.3437 17.2376Z" fill="#240F00"/>
<path d="M11.6616 25.6769C11.4697 25.7873 10.1277 24.0982 9.23418 24.6121C8.93255 24.7855 8.70242 25.0814 8.52961 25.4012C8.14988 26.1044 8.01994 26.9589 8.17291 27.7471C8.3894 28.8616 9.13968 29.774 10.0222 30.3788C12.397 32.0058 14.281 31.6983 16.8156 30.7564C18.8107 30.0153 21.5291 28.4894 20.9659 25.7366C19.9746 20.8908 11.6641 25.6755 11.6616 25.6769Z" fill="#873C41"/>
<path d="M18.5369 25.3671C17.8915 25.7687 17.1057 25.8101 16.4009 25.6499C16.2661 25.6192 16.1578 25.7326 16.1242 25.863C15.7801 27.2031 13.8289 27.9026 12.8504 27.0433C12.7745 26.9765 12.6398 26.9608 12.5602 27.0364C12.0321 27.5386 11.186 27.6748 10.5646 27.3351C9.68719 26.8553 9.69148 25.5073 9.93049 24.5686C10.7038 24.8053 11.5157 25.7608 11.6615 25.6766C11.6635 25.6754 16.7651 22.7391 19.451 23.7984C19.3941 24.4492 19.0959 25.0192 18.5369 25.3671Z" fill="white"/>
<path d="M11.2195 30.5798C12.615 29.2963 14.3308 28.5794 16.0706 28.0707C17.5586 27.6355 19.2341 27.3535 20.7403 27.7853C20.0423 29.2868 18.2464 30.2246 16.8157 30.7562C14.5985 31.58 12.8791 31.9184 10.8939 30.9014C11.002 30.7939 11.1075 30.6829 11.2195 30.5798Z" fill="#EE7E8B"/>
<path d="M15.6112 21.4547C15.6127 22.2124 16.0077 22.8274 16.8278 22.7014C17.4181 22.5429 17.8111 22.1259 17.8095 21.3313C17.8079 20.4987 17.3241 19.9584 16.8225 19.9574C16.1519 19.9561 15.6098 20.697 15.6112 21.4547Z" fill="#2A1200"/>
<path d="M10.0203 21.441C10.0213 21.9489 10.2507 22.4944 10.8377 22.4317C11.3303 22.379 11.4561 21.7309 11.4555 21.4118C11.4544 20.8537 11.1754 20.3265 10.7684 20.3257C10.3306 20.3249 10.0193 20.9331 10.0203 21.441Z" fill="#2A1200"/>
<path d="M15.2438 17.8641C16.0346 17.4716 17.0223 17.5081 17.8153 17.9557C18.071 18.1 18.2361 18.4449 18.105 18.7373C17.9841 19.0078 17.665 19.1776 17.3913 19.0228C17.3092 18.9764 17.2255 18.9343 17.1392 18.8979C17.1124 18.8866 17.0434 18.873 17.0166 18.8524C17.0041 18.8487 16.9918 18.845 16.9792 18.8416C16.9011 18.8205 16.8223 18.8035 16.7429 18.7904C16.6974 18.783 16.652 18.7771 16.6064 18.7724C16.5921 18.7709 16.5777 18.7697 16.5632 18.7686C16.5259 18.7733 16.4794 18.7667 16.4444 18.7678C16.3988 18.7692 16.3535 18.7722 16.308 18.7764C16.2287 18.7839 16.1498 18.7954 16.0718 18.8111C16.0609 18.8133 16.0502 18.8157 16.0394 18.8181C15.9986 18.8309 15.9577 18.8427 15.9173 18.857C15.8315 18.8874 15.7479 18.9239 15.666 18.9643C15.4105 19.0913 15.05 18.9119 14.9525 18.6229C14.8455 18.3046 14.9701 18.0001 15.2438 17.8641Z" fill="#351700"/>
<path d="M9.73241 18.14C10.2052 17.8827 10.7476 17.8249 11.2358 17.9662C11.3676 18.0044 11.4879 18.1194 11.5442 18.2467C11.5998 18.372 11.6112 18.5515 11.5564 18.6878C11.4994 18.8292 11.4022 18.9638 11.2651 19.0309C11.1262 19.099 10.9841 19.1165 10.841 19.0753C10.8175 19.0685 10.7935 19.0645 10.7696 19.0589C10.6954 19.0505 10.6207 19.0482 10.5454 19.0515C10.4549 19.0652 10.3657 19.0873 10.2777 19.1176C10.2471 19.1317 10.2157 19.1443 10.1857 19.1605C10.0562 19.2309 9.89417 19.2477 9.76156 19.2049C9.63461 19.164 9.50441 19.0546 9.45328 18.9242C9.40025 18.7893 9.38252 18.6289 9.44115 18.4832C9.49952 18.3378 9.59542 18.2145 9.73241 18.14Z" fill="#351700"/>
<path fill-rule="evenodd" clip-rule="evenodd" d="M6.54609 20.7913L9.66958 20.6788L9.70142 20.0089L6.53186 20.1534L6.54609 20.7913Z" fill="#896307"/>
<path fill-rule="evenodd" clip-rule="evenodd" d="M17.688 16.8015C19.4201 17.0749 20.6232 18.8533 20.314 20.8206C20.0048 22.7879 18.3145 24.1095 16.5824 23.8361C14.8503 23.5627 13.6472 21.7843 13.9564 19.817C14.2656 17.8497 15.9559 16.5281 17.688 16.8015ZM20.9921 20.1305C20.959 18.1751 19.6615 16.4671 17.7871 16.1712C15.664 15.8361 13.6897 17.4528 13.3335 19.7187C13.3335 19.7191 13.3334 19.7196 13.3333 19.72C13.2678 19.6936 13.1963 19.6681 13.1201 19.6459C12.8884 19.5784 12.5966 19.537 12.2929 19.6006C12.2541 18.8031 12.0227 18.0709 11.6461 17.4926C11.1781 16.7738 10.4732 16.2788 9.63522 16.2349C8.79848 16.191 8.03396 16.6076 7.47269 17.2688C6.91124 17.9302 6.53703 18.8515 6.46592 19.8748C6.39481 20.8981 6.6386 21.8538 7.10629 22.5721C7.57435 23.2909 8.27919 23.7859 9.1172 23.8298C9.95394 23.8737 10.7185 23.4571 11.2797 22.7959C11.8268 22.1514 12.1961 21.2602 12.2805 20.2682C12.4988 20.1787 12.7302 20.1967 12.9438 20.2589C13.0769 20.2977 13.1932 20.3514 13.2778 20.3969C13.263 22.398 14.5737 24.1649 16.4833 24.4663C18.6064 24.8015 20.5808 23.1848 20.9369 20.9189C20.9441 20.8732 20.9505 20.8275 20.9563 20.7819L26.4595 19.8935C27.4919 19.7504 28.5224 19.7979 29.2834 20.0539C30.0468 20.3108 30.4497 21.2557 30.4618 21.8425L31.0924 21.8273C31.0722 20.8517 30.3653 19.7451 29.4841 19.4486C28.6014 19.1516 27.4651 19.1101 26.3721 19.2621L26.3687 19.2625L20.9921 20.1305ZM11.1191 17.8446C11.5034 18.4347 11.7198 19.2489 11.6574 20.147C11.595 21.0451 11.2672 21.8328 10.8017 22.3812C10.336 22.9299 9.74855 23.2241 9.15171 23.1928C8.55615 23.1615 8.01723 22.8097 7.63333 22.2201C7.24905 21.63 7.03265 20.8158 7.09506 19.9177C7.15747 19.0196 7.48521 18.2319 7.95072 17.6835C8.41642 17.1348 9.00388 16.8406 9.60071 16.8719C10.1963 16.9031 10.7352 17.255 11.1191 17.8446Z" fill="#C5900F"/>
</svg>
