<svg width="40" height="40" viewBox="0 0 40 40" fill="none" xmlns="http://www.w3.org/2000/svg">
<rect width="40" height="40" rx="20" fill="#4A55B6"/>
<path d="M23.3853 7.16183C23.3853 7.16183 31.3826 8.41285 30.7761 19.8058C30.7739 19.8481 31.7008 20.4633 31.7734 20.529C32.4197 21.1134 32.962 21.8619 33.1991 22.7374C34.0434 25.8551 31.0247 29.0675 28.5835 29.9201C27.6716 30.2386 26.7078 30.3932 25.7421 30.4213C19.4643 30.604 11.1528 26.6149 10.7259 18.8242C10.7106 18.5447 10.7068 18.2649 10.714 17.9857C10.7519 16.5065 11.109 15.0658 11.6472 13.7282C11.6469 13.7282 15.1408 5.06397 23.3853 7.16183Z" fill="#F5D7B1"/>
<g style="mix-blend-mode:multiply" opacity="0.5">
<path d="M30.9784 19.9256C30.8919 20.1378 30.8055 20.4089 30.7814 20.564C30.6786 21.2291 30.9063 21.916 31.3017 22.4099C31.6771 22.8788 32.2131 23.183 32.7321 23.2978C32.9074 23.3366 33.1195 23.3566 33.3051 23.3629C33.1094 21.4366 31.5412 20.2803 30.9784 19.9256Z" fill="#FFD5CD"/>
</g>
<g style="mix-blend-mode:multiply" opacity="0.5">
<path d="M19.7064 24.9891C21.1914 24.6701 22.1129 23.1053 21.7646 21.4941C21.4163 19.8829 19.9302 18.8354 18.4452 19.1544C16.9602 19.4735 16.0387 21.0383 16.387 22.6495C16.7352 24.2607 18.2214 25.3082 19.7064 24.9891Z" fill="#FFD5CD"/>
</g>
<path opacity="0.3" d="M26.9779 20.4827C26.9779 20.4827 28.2465 19.2759 29.2287 20.4105L26.9779 20.4827Z" fill="#D09B73"/>
<path d="M15.1494 26.4974C10.9289 28.6123 7.09545 23.3043 8.3214 20.3216C9.10343 18.4191 11.3859 18.2718 12.7092 20.0103C13.4902 21.0364 14.1223 22.3477 14.4814 23.6022" fill="#F5D7B1"/>
<path opacity="0.3" d="M11.6705 21.7608C12.2138 22.3138 12.6508 23.1338 13.1877 23.5914C13.0881 22.826 12.9295 22.0088 12.5576 21.319C12.18 20.6184 11.4935 20.0412 10.7949 20.0885C9.92899 20.1473 9.21648 21.1558 9.1252 22.0703C9.17977 21.5231 10.2803 21.153 10.7004 21.205C11.3587 22.4454 11.6145 24.89 11.6145 24.89C12.1619 23.5063 11.9396 22.4178 11.6705 21.7608Z" fill="#D09B73"/>
<path d="M26.2167 10.5967C24.2383 13.3332 19.7642 18.9583 13.616 20.9651C13.2 20.2556 12.4594 19.5117 11.1202 19.536C9.44616 19.5664 8.83743 20.7827 8.83743 20.7827C8.83743 20.7827 6.88949 24.0361 11.3941 26.1037C12.642 26.347 13.0377 26.347 14.0421 25.9213C14.7218 26.4483 16.8788 28.2443 17.6336 28.5362C17.4408 29.5599 17.1005 32.1119 17.5631 33.2795C16.6805 33.3606 14.5291 33.8086 12.8246 32.8842C12.653 31.843 12.5021 30.4794 12.7707 29.9595C12.45 30.4831 11.8715 31.6783 11.8715 32.3673C10.8975 32.0329 8.73043 31.1025 7.85386 30.0565C6.49436 23.6712 6.00681 8.19458 19.7642 6.88712C20.9715 6.74522 24.0496 6.86887 26.095 8.25539C28.6516 9.98853 29.93 12.2994 30.417 14.6102C29.372 14.1237 27.0689 12.6399 26.2167 10.5967Z" fill="#E2BA87"/>
<path d="M31.2387 32.3673C30.8248 31.7836 31.0663 29.1342 31.2388 28.2321C29.5343 29.6612 28.5299 30.3605 25.0297 30.4518C25.6384 31.3639 28.0125 31.6984 28.2864 31.82L28.7734 31.4856V31.9721C29.4308 32.191 30.6909 32.3268 31.2387 32.3673Z" fill="#E2BA87"/>
<mask id="mask0_2181_3096" style="mask-type:alpha" maskUnits="userSpaceOnUse" x="19" y="6" width="12" height="9">
<path d="M25.9425 8.19456C23.8972 6.80805 20.9712 6.74521 19.7639 6.8871C20.0973 8.69119 21.1257 12.5305 23.9641 13.4548C24.7964 12.3773 25.7898 11.3745 26.2165 10.5966C27.0687 12.6399 29.3717 14.1237 30.4167 14.6102C29.9297 12.2994 28.4992 9.9277 25.9425 8.19456Z" fill="#E2BA87"/>
</mask>
<g mask="url(#mask0_2181_3096)">
<path d="M25.4818 10.2813C25.4818 10.2813 24.978 9.68477 23.879 9.78441C23.879 9.78441 24.6575 9.36208 25.1611 9.41177C25.1611 9.41177 23.7874 8.39295 21.7726 9.03913C21.7726 9.03913 23.1921 8.04516 24.3141 8.16937C24.3141 8.16937 23.1236 7.64767 22.368 7.77189C22.368 7.77189 22.9634 7.02634 23.7417 7.05118C23.7417 7.05118 23.1234 5.95784 22.1618 5.61005C22.1618 5.61005 24.085 6.15685 24.5886 6.55433C25.7104 7.02634 26.7407 8.41806 26.7407 8.41806C26.3974 8.21932 25.8478 8.26901 25.8478 8.26901C26.7407 8.81581 27.4277 9.83436 27.4277 9.83436C26.9928 9.53625 26.466 9.63562 26.466 9.63562C27.3132 10.4805 27.5879 11.5739 27.5879 11.5739C27.4734 11.2261 26.6492 10.8035 26.6492 10.8035C26.9696 11.3751 27.0383 12.2943 27.0383 12.2943L26.3513 11.3997C26.3513 11.3997 24.9548 12.5676 24.5883 12.7166C24.5883 12.7166 25.6415 11.6233 25.7102 11.1264C25.7102 11.1264 24.1303 11.5488 22.8711 11.7229C22.8716 11.7224 24.6346 10.3806 25.4818 10.2813Z" fill="#D9AC74"/>
</g>
<path d="M21.9554 13.2724C21.1032 14.3467 18.3274 16.9576 14.0419 18.8063C15.4014 17.9549 18.8874 15.6562 21.9554 13.2724Z" fill="#D9AC74"/>
<path d="M10.633 18.8063C13.1166 13.5521 18.161 10.5764 20.3727 9.7453C14.675 10.7183 10.8765 16.3333 9.68946 19.0191C9.9086 18.9218 10.4098 18.8367 10.633 18.8063Z" fill="#D9AC74"/>
<path d="M9.35466 25.1611C9.4764 25.3132 9.82947 25.5503 10.0243 25.6476C9.94575 26.9809 9.82674 29.5685 9.88778 30.7162C9.9039 30.8783 9.91918 31.0248 9.93295 31.1511C9.91247 31.0522 9.89773 30.9034 9.88778 30.7162C9.77323 29.5645 9.61633 27.626 9.65902 26.5598C9.43582 27.3706 9.05638 27.6423 9.32422 30.9991C9.04015 28.8301 8.59984 26.4747 9.35466 25.1611Z" fill="#D9AC74"/>
<path d="M29.7167 29.418C29.8872 29.345 30.1733 29.1443 30.295 29.0531C30.0759 29.418 30.1631 31.2525 30.2341 32.1241C30.0881 32.0025 29.9907 31.5464 29.9602 31.3336C29.8628 31.6498 29.6761 31.668 29.7167 32.1241C29.4489 31.516 29.6863 30.391 29.7167 29.418Z" fill="#D9AC74"/>
<path d="M16.0203 28.9315C15.7281 31.5829 15.8681 32.3065 16.1116 33.4316H15.5028H14.8941C14.4558 31.291 15.5739 30.2693 16.0203 28.9315Z" fill="#D9AC74"/>
<path d="M28.344 23.4042C28.9128 23.4199 29.4582 23.2572 29.9278 22.769C30.1736 22.5138 30.4228 22.3733 30.7754 22.5916C31.6197 23.1145 31.8184 24.4207 31.5915 25.2965C31.3424 26.2575 30.5918 27.0323 29.7269 27.5376C27.3994 28.8974 25.6142 28.5914 23.2325 27.7221C21.3578 27.0382 18.8232 25.6593 19.4657 23.2863C20.2613 20.3482 23.6901 21.7589 25.6247 22.5515C26.4462 22.8883 27.4256 23.3786 28.344 23.4042Z" fill="white"/>
<mask id="mask1_2181_3096" style="mask-type:alpha" maskUnits="userSpaceOnUse" x="19" y="21" width="13" height="8">
<path d="M28.344 23.4042C28.9128 23.4199 29.4582 23.2572 29.9278 22.769C30.1736 22.5138 30.4228 22.3733 30.7754 22.5916C31.6197 23.1145 31.8184 24.4207 31.5915 25.2965C31.3424 26.2575 30.5918 27.0323 29.7269 27.5376C27.3994 28.8974 25.6142 28.5914 23.2325 27.7221C21.3578 27.0382 18.8232 25.6593 19.4657 23.2863C20.2613 20.3482 23.6901 21.7589 25.6247 22.5515C26.4462 22.8883 27.4256 23.3786 28.344 23.4042Z" fill="white"/>
</mask>
<g mask="url(#mask1_2181_3096)">
<path fill-rule="evenodd" clip-rule="evenodd" d="M20.5791 26.6677L23.0156 20.5178L23.3547 20.6522L20.9182 26.8021L20.5791 26.6677ZM25.5856 28.6548L27.2685 22.2017L27.6215 22.2937L25.9386 28.7469L25.5856 28.6548ZM30.5944 27.0967L29.6658 22.3656L30.0238 22.2953L30.9524 27.0264L30.5944 27.0967Z" fill="#D1D3D4"/>
</g>
<path d="M23.187 19.0928C23.724 19.0831 24.2616 19.2766 24.7372 19.5655C25.0225 19.274 25.1596 18.776 25.0524 18.2557C24.9021 17.5255 24.3335 17.036 23.7824 17.1623C23.2313 17.2887 22.9067 17.9832 23.0573 18.7133C23.0853 18.8503 23.1322 18.9754 23.187 19.0928Z" fill="#2A1200"/>
<path d="M30.2256 19.1819C30.3048 19.0069 30.3513 18.7932 30.3467 18.5598C30.3358 17.9797 30.0252 17.5117 29.6529 17.5149C29.2806 17.5179 28.9877 17.9907 28.9987 18.5711C29.0047 18.8901 29.1034 19.1719 29.251 19.3633C29.5617 19.2428 29.8918 19.1853 30.2256 19.1819Z" fill="#2A1200"/>
<path d="M25.2022 14.8064C24.3702 14.6711 23.4787 14.9819 22.8802 15.6125C22.6873 15.8158 22.6333 16.1764 22.8349 16.406C23.0212 16.6184 23.36 16.6833 23.5665 16.4654C23.6285 16.4001 23.6931 16.3382 23.7616 16.2808C23.783 16.2629 23.8422 16.2312 23.8608 16.2048C23.8712 16.198 23.8813 16.1911 23.892 16.1845C23.9573 16.1433 24.0245 16.1057 24.0933 16.0715C24.1328 16.052 24.1725 16.0339 24.2128 16.0167C24.2256 16.0113 24.2383 16.0062 24.2513 16.0011C24.2866 15.9949 24.3272 15.9758 24.3595 15.967C24.4015 15.9555 24.4437 15.9454 24.4865 15.9365C24.561 15.921 24.6362 15.9093 24.7117 15.9017C24.7224 15.9006 24.7328 15.8998 24.7434 15.899C24.7841 15.8992 24.8248 15.8984 24.8657 15.9001C24.9526 15.9037 25.0391 15.9134 25.1252 15.9272C25.3941 15.9711 25.6729 15.7064 25.6809 15.4157C25.6893 15.0956 25.4902 14.8533 25.2022 14.8064Z" fill="#71472D"/>
<path d="M30.7877 15.762C30.4856 15.3462 30.0417 15.0734 29.5628 14.9942C29.4335 14.9729 29.2826 15.0224 29.1818 15.1087C29.0825 15.1936 28.9991 15.3434 28.9904 15.4832C28.9815 15.6283 29.0102 15.784 29.1008 15.8982C29.1927 16.0139 29.3079 16.0874 29.4483 16.1108C29.4713 16.1145 29.4936 16.121 29.5165 16.126C29.584 16.1493 29.6492 16.1781 29.7129 16.2118C29.7853 16.2608 29.8531 16.3165 29.9165 16.3788C29.9372 16.4035 29.9591 16.4272 29.9783 16.4536C30.0611 16.5673 30.1939 16.6484 30.3257 16.6662C30.452 16.6832 30.6091 16.6426 30.7067 16.5515C30.8077 16.4572 30.8888 16.3265 30.8981 16.177C30.9074 16.028 30.8753 15.8824 30.7877 15.762Z" fill="#71472D"/>
</svg>
