<?xml version="1.0" encoding="UTF-8" standalone="no"?>
<!DOCTYPE svg PUBLIC "-//W3C//DTD SVG 1.1//EN" "http://www.w3.org/Graphics/SVG/1.1/DTD/svg11.dtd">
<svg width="100%" height="100%" viewBox="0 0 768 256" version="1.1" xmlns="http://www.w3.org/2000/svg" xmlns:xlink="http://www.w3.org/1999/xlink" xml:space="preserve" xmlns:serif="http://www.serif.com/" style="fill-rule:evenodd;clip-rule:evenodd;stroke-linejoin:round;stroke-miterlimit:2;">
    <g transform="matrix(1,0,0,1,2.74223,0.681819)">
        <g id="Betalyra-bright.svg" transform="matrix(0.600911,0,0,0.600911,128.41,127.318)">
            <g transform="matrix(1,0,0,1,-85,-174.5)">
                <g transform="matrix(1,0,0,1,-870,-1177)">
                    <path d="M874,1180C911.003,1180 941,1210 941,1247C941,1284 911.003,1314 874,1314C911.003,1286.25 918.502,1233.75 890.75,1196.75C885.989,1190.4 880.349,1184.76 874,1180Z" style="fill:white;"/>
                    <path d="M874,1314C931.438,1314 978,1360.56 978,1418C978,1475.44 931.438,1522 874,1522C931.438,1478.92 943.078,1397.44 900,1340C892.609,1330.15 883.855,1321.39 874,1314Z" style="fill:white;"/>
                    <path d="M923,1180C959.451,1180 989,1210 989,1247C989,1284 959.451,1314 923,1314C959.451,1298.43 976.562,1255.8 961.22,1218.8C953.962,1201.29 940.243,1187.37 923,1180Z" style="fill:white;"/>
                    <path d="M934,1314C991.438,1314 1038,1360.56 1038,1418C1038,1475.44 991.438,1522 934,1522C991.438,1502.02 1021.8,1439.26 1001.83,1381.83C990.77,1350.04 965.786,1325.06 934,1314Z" style="fill:white;"/>
                </g>
            </g>
        </g>
        <g transform="matrix(1,0,0,1,-57.975,66.0288)">
            <g transform="matrix(128,0,0,128,267.254,92.9054)">
                <path d="M0.322,0.009C0.454,0.009 0.537,-0.101 0.537,-0.247C0.537,-0.406 0.441,-0.502 0.322,-0.502C0.26,-0.502 0.207,-0.473 0.175,-0.42L0.175,-0.697L0.065,-0.697L0.065,-0L0.175,-0L0.175,-0.071C0.209,-0.015 0.263,0.009 0.322,0.009ZM0.295,-0.093C0.217,-0.093 0.165,-0.155 0.165,-0.247C0.165,-0.339 0.217,-0.401 0.295,-0.401C0.373,-0.401 0.425,-0.339 0.425,-0.247C0.425,-0.154 0.373,-0.093 0.295,-0.093Z" style="fill:white;fill-rule:nonzero;"/>
            </g>
            <g transform="matrix(128,0,0,128,341.366,92.9054)">
                <path d="M0.281,0.009C0.364,0.009 0.419,-0.014 0.483,-0.069L0.422,-0.143C0.384,-0.107 0.339,-0.089 0.285,-0.089C0.209,-0.089 0.158,-0.131 0.153,-0.21L0.495,-0.21C0.497,-0.227 0.498,-0.247 0.498,-0.256C0.498,-0.389 0.426,-0.502 0.273,-0.502C0.113,-0.502 0.042,-0.375 0.042,-0.243C0.042,-0.11 0.115,0.009 0.281,0.009ZM0.151,-0.292C0.157,-0.353 0.196,-0.41 0.275,-0.41C0.349,-0.41 0.392,-0.357 0.392,-0.298L0.392,-0.292L0.151,-0.292Z" style="fill:white;fill-rule:nonzero;"/>
            </g>
            <g transform="matrix(128,0,0,128,410.23,92.9054)">
                <path d="M0.244,0.009C0.272,0.009 0.299,0.005 0.326,-0.005L0.326,-0.091C0.306,-0.085 0.287,-0.082 0.274,-0.082C0.23,-0.082 0.216,-0.112 0.216,-0.169L0.216,-0.407L0.326,-0.407L0.326,-0.493L0.216,-0.493L0.216,-0.675L0.104,-0.613L0.104,-0.493L0.01,-0.493L0.01,-0.407L0.104,-0.407L0.104,-0.138C0.104,-0.031 0.168,0.009 0.244,0.009Z" style="fill:white;fill-rule:nonzero;"/>
            </g>
            <g transform="matrix(128,0,0,128,456.31,92.9054)">
                <path d="M0.383,-0L0.485,-0L0.485,-0.311C0.485,-0.431 0.407,-0.502 0.274,-0.502C0.189,-0.502 0.118,-0.478 0.054,-0.418L0.116,-0.345C0.159,-0.387 0.212,-0.408 0.265,-0.408C0.334,-0.408 0.375,-0.375 0.375,-0.311L0.375,-0.297L0.229,-0.297C0.182,-0.297 0.139,-0.289 0.106,-0.269C0.068,-0.246 0.043,-0.206 0.043,-0.151C0.043,-0.054 0.12,0.009 0.23,0.009C0.29,0.009 0.342,-0.017 0.376,-0.069L0.383,-0ZM0.154,-0.15C0.154,-0.171 0.162,-0.187 0.177,-0.198C0.195,-0.21 0.221,-0.214 0.245,-0.214L0.375,-0.214L0.375,-0.204C0.375,-0.133 0.315,-0.081 0.244,-0.081C0.189,-0.081 0.154,-0.108 0.154,-0.15Z" style="fill:white;fill-rule:nonzero;"/>
            </g>
            <g transform="matrix(128,0,0,128,525.942,92.9054)">
                <path d="M0.174,0.009C0.195,0.009 0.223,0.005 0.249,-0.006L0.249,-0.1C0.235,-0.096 0.222,-0.093 0.211,-0.093C0.188,-0.093 0.173,-0.106 0.173,-0.137L0.173,-0.697L0.062,-0.697L0.062,-0.115C0.062,-0.029 0.109,0.009 0.174,0.009Z" style="fill:white;fill-rule:nonzero;"/>
            </g>
            <g transform="matrix(128,0,0,128,560.886,92.9054)">
                <path d="M0.108,0.203L0.228,0.203L0.512,-0.493L0.392,-0.493L0.265,-0.144L0.14,-0.493L0.018,-0.493L0.206,-0.033L0.108,0.203Z" style="fill:white;fill-rule:nonzero;"/>
            </g>
            <g transform="matrix(128,0,0,128,628.726,92.9054)">
                <path d="M0.065,-0L0.176,-0L0.176,-0.218C0.176,-0.272 0.179,-0.298 0.186,-0.317C0.203,-0.37 0.245,-0.392 0.288,-0.392C0.31,-0.392 0.335,-0.385 0.35,-0.376L0.404,-0.476C0.372,-0.495 0.344,-0.502 0.312,-0.502C0.261,-0.502 0.206,-0.471 0.177,-0.421L0.177,-0.493L0.065,-0.493L0.065,-0Z" style="fill:white;fill-rule:nonzero;"/>
            </g>
            <g transform="matrix(128,0,0,128,681.078,92.9054)">
                <path d="M0.383,-0L0.485,-0L0.485,-0.311C0.485,-0.431 0.407,-0.502 0.274,-0.502C0.189,-0.502 0.118,-0.478 0.054,-0.418L0.116,-0.345C0.159,-0.387 0.212,-0.408 0.265,-0.408C0.334,-0.408 0.375,-0.375 0.375,-0.311L0.375,-0.297L0.229,-0.297C0.182,-0.297 0.139,-0.289 0.106,-0.269C0.068,-0.246 0.043,-0.206 0.043,-0.151C0.043,-0.054 0.12,0.009 0.23,0.009C0.29,0.009 0.342,-0.017 0.376,-0.069L0.383,-0ZM0.154,-0.15C0.154,-0.171 0.162,-0.187 0.177,-0.198C0.195,-0.21 0.221,-0.214 0.245,-0.214L0.375,-0.214L0.375,-0.204C0.375,-0.133 0.315,-0.081 0.244,-0.081C0.189,-0.081 0.154,-0.108 0.154,-0.15Z" style="fill:white;fill-rule:nonzero;"/>
            </g>
        </g>
    </g>
</svg>
