<svg viewBox="0 0 40 40" fill="none" xmlns="http://www.w3.org/2000/svg">
<path fill-rule="evenodd" clip-rule="evenodd" d="M21.2843 12.0736C20.8868 12.2309 20.4535 12.3174 20 12.3174C19.516 12.3174 19.0551 12.2189 18.6361 12.041L15.1383 17.2268C15.9709 17.865 16.5078 18.8698 16.5078 20C16.5078 21.9286 14.9444 23.492 13.0157 23.492C11.0871 23.492 9.52368 21.9286 9.52368 20C9.52368 18.0713 11.0871 16.5079 13.0157 16.5079C13.3096 16.5079 13.595 16.5442 13.8677 16.6126L17.4857 11.2487C16.8802 10.6207 16.5079 9.7665 16.5079 8.82532C16.5079 6.8967 18.0713 5.33325 20 5.33325C21.9286 5.33325 23.492 6.8967 23.492 8.82532C23.492 9.79737 23.0949 10.6767 22.4539 11.3098L26.0461 16.6353C26.3445 16.5523 26.6591 16.5079 26.984 16.5079C28.9126 16.5079 30.4761 18.0713 30.4761 20C30.4761 21.9286 28.9126 23.492 26.984 23.492C25.0554 23.492 23.4919 21.9286 23.4919 20C23.4919 18.9 24.0005 17.9189 24.7952 17.2788L21.2843 12.0736Z" fill="url(#paint0_linear_2181_3271)"/>
<path fill-rule="evenodd" clip-rule="evenodd" d="M14.3004 23.2484C13.9029 23.4057 13.4696 23.4922 13.0161 23.4922C12.5322 23.4922 12.0713 23.3938 11.6524 23.2159L8.15453 28.4017C8.98709 29.0399 9.52392 30.0446 9.52392 31.1748C9.52392 33.1034 7.96047 34.6668 6.03186 34.6668C4.10325 34.6668 2.53979 33.1034 2.53979 31.1748C2.53979 29.2461 4.10325 27.6827 6.03186 27.6827C6.32579 27.6827 6.61125 27.719 6.88398 27.7874L10.5019 22.4236C9.8964 21.7956 9.52401 20.9414 9.52401 20.0001C9.52401 18.0715 11.0875 16.5081 13.0161 16.5081C14.9447 16.5081 16.5081 18.0715 16.5081 20.0001C16.5081 20.9722 16.111 21.8515 15.47 22.4846L19.0621 27.8101C19.3606 27.7271 19.6752 27.6827 20.0001 27.6827C21.9287 27.6827 23.4922 29.2461 23.4922 31.1748C23.4922 33.1034 21.9287 34.6668 20.0001 34.6668C18.0715 34.6668 16.5081 33.1034 16.5081 31.1748C16.5081 30.0749 17.0166 29.0937 17.8113 28.4536L14.3004 23.2484Z" fill="url(#paint1_linear_2181_3271)"/>
<path fill-rule="evenodd" clip-rule="evenodd" d="M28.2686 23.2484C27.871 23.4057 27.4377 23.4922 26.9842 23.4922C26.5004 23.4922 26.0395 23.3938 25.6206 23.2159L22.1228 28.4017C22.9554 29.0399 23.4922 30.0446 23.4922 31.1748C23.4922 33.1034 21.9287 34.6668 20.0001 34.6668C18.0715 34.6668 16.5081 33.1034 16.5081 31.1748C16.5081 29.2461 18.0715 27.6827 20.0001 27.6827C20.2941 27.6827 20.5795 27.719 20.8522 27.7874L24.4701 22.4237C23.8645 21.7957 23.4921 20.9414 23.4921 20.0001C23.4921 18.0715 25.0556 16.5081 26.9842 16.5081C28.9128 16.5081 30.4762 18.0715 30.4762 20.0001C30.4762 20.9721 30.0791 21.8514 29.4382 22.4845L33.0304 27.8101C33.3289 27.7271 33.6434 27.6827 33.9684 27.6827C35.897 27.6827 37.4604 29.2461 37.4604 31.1748C37.4604 33.1034 35.897 34.6668 33.9684 34.6668C32.0398 34.6668 30.4763 33.1034 30.4763 31.1748C30.4763 30.0749 30.9848 29.0937 31.7796 28.4536L28.2686 23.2484Z" fill="url(#paint2_linear_2181_3271)"/>
<defs>
<linearGradient id="paint0_linear_2181_3271" x1="9.52368" y1="5.33325" x2="30.3264" y2="6.8329" gradientUnits="userSpaceOnUse">
<stop stop-color="#98B0FF"/>
<stop offset="1" stop-color="#42FFA4"/>
</linearGradient>
<linearGradient id="paint1_linear_2181_3271" x1="2.53979" y1="16.5081" x2="23.3425" y2="18.0077" gradientUnits="userSpaceOnUse">
<stop stop-color="#98B0FF"/>
<stop offset="1" stop-color="#42FFA4"/>
</linearGradient>
<linearGradient id="paint2_linear_2181_3271" x1="16.5081" y1="16.5081" x2="37.3108" y2="18.0077" gradientUnits="userSpaceOnUse">
<stop stop-color="#98B0FF"/>
<stop offset="1" stop-color="#42FFA4"/>
</linearGradient>
</defs>
</svg>
