<svg viewBox="0 0 40 40" fill="none" xmlns="http://www.w3.org/2000/svg">
<path fill-rule="evenodd" clip-rule="evenodd" d="M16.1359 11.9756C16.4172 11.9753 16.7091 11.9753 17.0124 11.9753H22.9877C23.2911 11.9753 23.583 11.9753 23.8643 11.9756V10.3333C23.8643 8.1992 22.1342 6.46914 20.0001 6.46914C17.8659 6.46914 16.1359 8.1992 16.1359 10.3333V11.9756ZM13.6667 11.9995C11.698 12.0502 10.4243 12.207 9.35626 12.6924C7.59545 13.4928 6.18423 14.904 5.38384 16.6649C4.66675 18.2424 4.66675 20.2686 4.66675 24.321C4.66675 28.3734 4.66675 30.3996 5.38384 31.9772C6.18423 33.738 7.59545 35.1492 9.35626 35.9496C10.9338 36.6667 12.96 36.6667 17.0124 36.6667H22.9877C27.0401 36.6667 29.0663 36.6667 30.6439 35.9496C32.4047 35.1492 33.8159 33.738 34.6163 31.9772C35.3334 30.3996 35.3334 28.3734 35.3334 24.321C35.3334 20.2686 35.3334 18.2424 34.6163 16.6649C33.8159 14.904 32.4047 13.4928 30.6439 12.6924C29.5759 12.207 28.3022 12.0502 26.3334 11.9995V10.3333C26.3334 6.83553 23.4979 4 20.0001 4C16.5023 4 13.6667 6.83553 13.6667 10.3333V11.9995ZM23.8339 17.9699C24.0865 18.2225 24.1897 18.5873 24.1085 18.9336L24.001 19.1198L24.001 19.1198C23.9699 19.1737 23.9543 19.2006 23.9279 19.2077C23.9016 19.2147 23.8746 19.1992 23.8208 19.1681L21.7363 17.9647C21.6799 17.9321 21.6516 17.9158 21.645 17.8882C21.6384 17.8607 21.6561 17.8333 21.6916 17.7786L21.8051 17.6037C22.0644 17.3603 22.4319 17.2673 22.777 17.3598C22.908 17.3949 23.0463 17.4747 23.323 17.6344L23.323 17.6344C23.5996 17.7941 23.7379 17.874 23.8339 17.9699ZM17.4135 25.5085C17.6774 25.4378 17.9467 25.5932 18.4852 25.9042L18.5801 25.9589C19.1186 26.2699 19.3879 26.4253 19.4586 26.6892C19.5293 26.9531 19.3738 27.2224 19.0629 27.7609L17.6432 30.2199L17.6432 30.2199C17.4835 30.4965 17.4036 30.6349 17.3077 30.7308C17.0474 30.9911 16.668 31.0928 16.3124 30.9975C16.1814 30.9624 16.0431 30.8825 15.7665 30.7228L15.7664 30.7228L15.7664 30.7228L15.7664 30.7228L15.7663 30.7227L15.7662 30.7227C15.4897 30.563 15.3514 30.4832 15.2555 30.3873C14.9952 30.127 14.8936 29.7476 14.9888 29.392C15.024 29.2609 15.1038 29.1226 15.2635 28.846L16.6832 26.387C16.9941 25.8485 17.1496 25.5792 17.4135 25.5085ZM15.8795 19.1498C16.4336 18.1901 16.7106 17.7102 17.1091 17.4515C17.4595 17.2239 17.873 17.1131 18.2903 17.135C18.7647 17.1598 19.2446 17.4369 20.2043 17.991L24.4313 20.4314C25.391 20.9855 25.8709 21.2626 26.1296 21.661C26.3572 22.0114 26.468 22.4249 26.4461 22.8422C26.4212 23.3166 26.1442 23.7965 25.5901 24.7562L25.5901 24.7562L25.4582 24.9847C24.9041 25.9444 24.627 26.4243 24.2286 26.683C23.8782 26.9106 23.4647 27.0214 23.0474 26.9995C22.573 26.9747 22.0931 26.6976 21.1334 26.1435L16.9064 23.7031C15.9467 23.149 15.4668 22.872 15.2081 22.4735C14.9805 22.1231 14.8697 21.7096 14.8916 21.2923C14.9164 20.8179 15.1935 20.338 15.7476 19.3783L15.7476 19.3783L15.8795 19.1498Z" fill="url(#paint0_linear_2181_3205)"/>
<defs>
<linearGradient id="paint0_linear_2181_3205" x1="4.66675" y1="4" x2="35.1677" y2="5.78894" gradientUnits="userSpaceOnUse">
<stop stop-color="#98B0FF"/>
<stop offset="1" stop-color="#42FFA4"/>
</linearGradient>
</defs>
</svg>
