<svg viewBox="0 0 40 40" fill="none" xmlns="http://www.w3.org/2000/svg">
<path d="M15.812 27.4793H7.66889L6.95934 29.5742C6.60317 30.6257 5.61153 31.3333 4.50129 31.3333C2.70564 31.3333 1.4451 29.5505 2.05604 27.862L8.07626 11.2235C8.44734 10.1979 9.42114 9.51465 10.5118 9.51465H13.0313C14.1219 9.51465 15.0957 10.1979 15.4668 11.2235L21.487 27.862C22.098 29.5505 20.8472 31.3333 19.0515 31.3333H18.9747C17.8645 31.3333 16.8778 30.6257 16.5216 29.5742L15.812 27.4793ZM14.4445 23.3766L11.7405 15.3889L9.06752 23.3766H14.4445Z" fill="url(#paint0_linear_2181_3263)"/>
<path d="M28.9178 31.3334C25.746 31.3334 23.6062 29.2694 23.6062 26.219C23.6062 23.1383 25.8978 21.3475 30.2989 21.0136L33.759 20.7556V19.496C33.759 18.4185 32.9547 17.7356 31.6799 17.7356C31.0998 17.7356 30.582 17.8812 30.1812 18.1399C29.5538 18.5447 28.9136 19.1014 28.1669 19.1014H26.1072C25.0907 19.1014 24.2667 18.1994 24.7051 17.2823C25.7541 15.0882 28.3333 13.7898 31.862 13.7898C36.4907 13.7898 39.0403 15.8841 39.0403 19.663V29.3487C39.0403 30.3023 38.2673 31.0754 37.3136 31.0754H35.6982C34.7446 31.0754 33.9715 30.3023 33.9715 29.3487V28.9811H33.5162C32.6664 30.4532 30.9514 31.3334 28.9178 31.3334ZM30.8604 27.3724C32.6208 27.3724 33.759 26.2949 33.759 24.6104V23.8364L31.3157 24.0337C29.6615 24.1703 28.842 24.7621 28.842 25.8093C28.842 26.7654 29.6311 27.3724 30.8604 27.3724Z" fill="url(#paint1_linear_2181_3263)"/>
<defs>
<linearGradient id="paint0_linear_2181_3263" x1="0.800049" y1="9.51465" x2="22.6134" y2="10.8853" gradientUnits="userSpaceOnUse">
<stop stop-color="#98B0FF"/>
<stop offset="1" stop-color="#42FFA4"/>
</linearGradient>
<linearGradient id="paint1_linear_2181_3263" x1="23.6062" y1="13.7898" x2="38.9633" y2="14.6339" gradientUnits="userSpaceOnUse">
<stop stop-color="#98B0FF"/>
<stop offset="1" stop-color="#42FFA4"/>
</linearGradient>
</defs>
</svg>
