<svg viewBox="0 0 40 40" fill="none" xmlns="http://www.w3.org/2000/svg">
<path fill-rule="evenodd" clip-rule="evenodd" d="M8.46156 10.8067C9.55431 10.4204 10.4204 9.55433 10.8067 8.46159H29.1932C29.5794 9.55441 30.4456 10.4205 31.5384 10.8068V29.1931C30.4455 29.5794 29.5794 30.4456 29.1931 31.5384H10.8068C10.4206 30.4456 9.55441 29.5794 8.46156 29.1931L8.46156 10.8067ZM10.8068 34.1025C10.2788 35.5963 8.85411 36.6666 7.17949 36.6666C5.05532 36.6666 3.33333 34.9446 3.33333 32.8204C3.33333 31.1458 4.40361 29.7211 5.89746 29.1931V10.8067C4.40357 10.2788 3.33325 8.85408 3.33325 7.17941C3.33325 5.05523 5.05523 3.33325 7.17941 3.33325C8.85409 3.33325 10.2788 4.40358 10.8068 5.89749H29.1931C29.7211 4.40362 31.1458 3.33333 32.8204 3.33333C34.9446 3.33333 36.6666 5.05532 36.6666 7.17949C36.6666 8.85412 35.5963 10.2788 34.1025 10.8068V29.1931C35.5963 29.7211 36.6666 31.1458 36.6666 32.8204C36.6666 34.9446 34.9446 36.6666 32.8204 36.6666C31.1458 36.6666 29.7212 35.5963 29.1932 34.1025H10.8068Z" fill="url(#paint0_linear_2181_3247)"/>
<path d="M24.3242 12.3333C25.1616 12.3333 25.8404 13.0121 25.8404 13.8495C25.8404 14.6869 25.1616 15.3658 24.3242 15.3658H21.7233V25.9796C21.7233 27.0248 20.876 27.8721 19.8307 27.8721C18.7855 27.8721 17.9382 27.0248 17.9382 25.9796V15.3658H15.3373C14.4999 15.3658 13.821 14.6869 13.821 13.8495C13.821 13.0121 14.4999 12.3333 15.3373 12.3333H24.3242Z" fill="url(#paint1_linear_2181_3247)"/>
<defs>
<linearGradient id="paint0_linear_2181_3247" x1="3.33325" y1="3.33325" x2="36.4712" y2="5.40361" gradientUnits="userSpaceOnUse">
<stop stop-color="#98B0FF"/>
<stop offset="1" stop-color="#42FFA4"/>
</linearGradient>
<linearGradient id="paint1_linear_2181_3247" x1="13.821" y1="12.3333" x2="25.7886" y2="12.9116" gradientUnits="userSpaceOnUse">
<stop stop-color="#98B0FF"/>
<stop offset="1" stop-color="#42FFA4"/>
</linearGradient>
</defs>
</svg>
