<svg viewBox="0 0 130 40" xmlns="http://www.w3.org/2000/svg">
    <path fill-rule="evenodd" clip-rule="evenodd"
        d="M105.27 13.776C105.27 13.3846 105.388 13.002 105.611 12.6765C105.833 12.351 106.149 12.0973 106.518 11.9475C106.887 11.7977 107.294 11.7585 107.686 11.8349C108.078 11.9113 108.439 12.0998 108.721 12.3766C109.004 12.6534 109.197 13.006 109.275 13.3899C109.353 13.7738 109.313 14.1718 109.16 14.5334C109.007 14.8951 108.748 15.2042 108.415 15.4217C108.083 15.6391 107.692 15.7552 107.292 15.7552C106.757 15.7498 106.246 15.5396 105.868 15.1696C105.49 14.7996 105.275 14.2993 105.27 13.776ZM108.977 16.7228V27.7182H105.607V16.7228H108.977ZM42.8723 27.7168V24.3314L37.2559 24.3302V12.3232H33.6614V27.7168H42.8723ZM52.4628 27.7181H55.8327V16.7227L52.4628 16.7288V17.7624C51.7215 16.9243 50.6206 16.4185 49.1154 16.4185C46.1749 16.4185 43.7486 18.9487 43.7486 22.2241C43.7486 25.4995 46.1724 28.0284 49.1154 28.0284C50.6206 28.0284 51.7215 27.5202 52.4628 26.6845V27.7181ZM49.7894 19.5326C51.3395 19.5326 52.4628 20.5711 52.4628 22.2204C52.4628 23.8697 51.3395 24.9082 49.7894 24.9082C48.2393 24.9082 47.116 23.8746 47.116 22.2204C47.116 20.5662 48.2393 19.5326 49.7894 19.5326ZM62.601 19.8894V23.7818C62.601 24.7274 63.4322 24.8154 64.915 24.7274V27.7169C60.5117 28.1568 59.2311 26.8617 59.2311 23.7818V19.8894H57.4339V16.7228H59.2311V14.6337L62.601 13.6441V16.7228H64.915V19.8894H62.601ZM72.1801 16.4149C68.7653 16.4149 66.2267 18.9438 66.2267 22.2204C66.2267 25.4958 68.7703 28.0248 72.1801 28.0248C74.3868 28.0248 76.2914 26.8996 77.2574 25.1892L74.3194 23.5399C73.9599 24.3095 73.1287 24.7713 72.1402 24.7713C70.6799 24.7713 69.6015 23.7378 69.6015 22.2204C69.6015 20.7031 70.6799 19.6695 72.1402 19.6695C73.1237 19.6695 73.9324 20.1313 74.3144 20.8961L77.2574 19.2248C76.2914 17.5364 74.3593 16.4149 72.1801 16.4149ZM89.4799 20.9668V27.7168H86.11V21.4506C86.11 20.0872 85.2363 19.4495 84.1555 19.4495C82.9199 19.4495 82.0662 20.1532 82.0662 21.7145V27.7168H78.6963V12.3232H82.0662V17.7549C82.674 16.9413 83.796 16.4111 85.2788 16.4111C87.5478 16.4147 89.4799 17.9981 89.4799 20.9668ZM98.6398 27.7194C101.448 27.7194 103.717 25.9394 103.717 23.2125C103.733 22.518 103.562 21.8316 103.222 21.2218C102.882 20.612 102.385 20.1 101.78 19.7368C102.222 19.3654 102.575 18.9025 102.813 18.3815C103.05 17.8605 103.166 17.2944 103.153 16.724C103.153 14.0631 100.934 12.3259 98.188 12.3259H92.0324V27.7194H98.6398ZM95.6294 18.3501V15.6257L98.188 15.6233C99.0217 15.6233 99.5609 16.195 99.5609 16.9867C99.5609 17.7784 98.9968 18.3501 98.188 18.3501H95.6294ZM98.6398 21.4753C99.5384 21.4753 100.123 22.0934 100.123 22.9486L100.12 22.9462C100.12 23.8038 99.5359 24.4196 98.6373 24.422H95.6269V21.4753H98.6398ZM116.68 16.4149C113.377 16.4149 110.727 18.9438 110.727 22.2204C110.727 25.4958 113.377 28.0248 116.68 28.0248C119.982 28.0248 122.632 25.497 122.632 22.2204C122.632 18.9438 119.982 16.4149 116.68 16.4149ZM116.68 19.6255C118.14 19.6255 119.264 20.6591 119.264 22.2204C119.264 23.7818 118.14 24.8153 116.68 24.8153C115.22 24.8153 114.096 23.7818 114.096 22.2204C114.096 20.6591 115.22 19.6255 116.68 19.6255Z"
        fill="rgb(228, 228, 231)"></path>
    <mask id="mask0_244_43034" style="mask-type:alpha" maskUnits="userSpaceOnUse" x="7" y="6"
        width="18" height="29">
        <path fill-rule="evenodd" clip-rule="evenodd" fill="currentcolor"
            d="M10.2594 6.58606L23.8799 19.9247L10.0896 33.4136L6.72852 30.1235L17.1539 19.9222L6.89451 9.87612L10.2594 6.58606ZM20.5736 6.58606L23.9385 9.87612L20.5711 13.1723L17.21 9.88223L20.5736 6.58606ZM20.5711 33.2476L17.21 29.9575L20.5736 26.6675L23.9322 29.9575L20.5711 33.2476ZM13.6789 19.9225L10.3178 16.6324L10.2616 16.6862L6.95667 19.925L10.2591 23.1576L10.3178 23.215L13.6789 19.9225Z"></path>
    </mask>
    <g mask="url(#mask0_244_43034)">
        <rect x="7" y="6" width="18" height="29" fill="url(#pattern0)"></rect>
    </g>
    <g class="logo_logoOverlay__R3rxH">
        <path fill-rule="evenodd" clip-rule="evenodd" fill="rgb(228, 228, 231)"
            d="M10.2594 6.58606L23.8799 19.9247L10.0896 33.4136L6.72852 30.1235L17.1539 19.9222L6.89451 9.87612L10.2594 6.58606ZM20.5736 6.58606L23.9385 9.87612L20.5711 13.1723L17.21 9.88223L20.5736 6.58606ZM20.5711 33.2476L17.21 29.9575L20.5736 26.6675L23.9322 29.9575L20.5711 33.2476ZM13.6789 19.9225L10.3178 16.6324L10.2616 16.6862L6.95667 19.925L10.2591 23.1576L10.3178 23.215L13.6789 19.9225Z"></path>
    </g>
</svg>
