<svg height="40" viewBox="0 0 1684 520" xmlns="http://www.w3.org/2000/svg">
    <path
        d="M480 -1.52588e-05C457.909 -1.52588e-05 440 17.9086 440 40C440 62.0914 457.909 80 480 80C502.091 80 520 62.0914 520 40C520 17.9086 502.091 -1.52588e-05 480 -1.52588e-05Z"
        class="fill-violet-600 dark:fill-violet-500"></path>
    <path
        d="M40 520C62.0914 520 80 502.091 80 480C80 457.909 62.0914 440 40 440C17.9086 440 0 457.909 0 480C0 502.091 17.9086 520 40 520Z"
        class="fill-violet-600 dark:fill-violet-500"></path>
    <path
        d="M360 3.89421e-05C382.091 4.08734e-05 400 17.9086 400 40C400 62.0914 382.091 80 360 80L233.137 80C197.501 80 179.654 123.086 204.853 148.284L371.716 315.147C447.311 390.743 393.771 520 286.863 520H160C137.909 520 120 502.091 120 480C120 457.909 137.909 440 160 440H286.863C322.499 440 340.346 396.914 315.147 371.716L148.284 204.853C72.6884 129.257 126.229 3.05176e-05 233.137 3.05176e-05L360 3.89421e-05Z"
        class="fill-violet-600 dark:fill-violet-500"></path>
    <path
        d="M0 360C0 382.091 17.9086 400 40 400C62.0914 400 80 382.091 80 360V233.137C80 197.501 123.086 179.654 148.284 204.853L315.147 371.716C390.743 447.312 520 393.771 520 286.863V160C520 137.909 502.091 120 480 120C457.909 120 440 137.909 440 160V286.863C440 322.499 396.914 340.346 371.716 315.147L204.853 148.284C129.257 72.6885 0 126.229 0 233.137V360Z"
        class="fill-current"></path>
    <path
        d="M893.688 114.822C893.688 98.7397 880.651 85.7023 864.568 85.7023C848.485 85.7023 835.448 98.7397 835.448 114.822V240.402L718.378 97.4291C712.3 90.0065 703.213 85.7023 693.619 85.7023H692C674.327 85.7023 660 100.029 660 117.702V311.382C660 327.465 673.037 340.502 689.12 340.502C705.203 340.502 718.24 327.465 718.24 311.382V185.802L835.675 328.81C841.753 336.212 850.827 340.502 860.405 340.502H861.688C879.361 340.502 893.688 326.175 893.688 308.502V114.822Z"
        class="fill-current"></path>
    <path
        d="M1117.82 316.842C1117.82 303.775 1107.22 293.182 1094.16 293.182H984.292V234.214H1074.5C1087.17 234.214 1097.43 223.947 1097.43 211.282C1097.43 198.617 1087.17 188.35 1074.5 188.35H984.292V133.022H1089.42C1102.49 133.022 1113.08 122.429 1113.08 109.362C1113.08 96.2952 1102.49 85.7023 1089.42 85.7023H957.688C940.015 85.7023 925.688 100.029 925.688 117.702V308.502C925.688 326.175 940.015 340.502 957.688 340.502H1094.16C1107.22 340.502 1117.82 329.909 1117.82 316.842Z"
        class="fill-current"></path>
    <path
        d="M1205.14 206.102L1252.9 302.278C1257.16 309.288 1264.78 313.566 1272.98 313.566C1281.19 313.566 1288.8 309.288 1293.06 302.278L1340.82 206.102V312.838C1340.82 328.117 1353.2 340.502 1368.48 340.502C1383.76 340.502 1396.15 328.117 1396.15 312.838V116.868C1396.15 99.6555 1382.19 85.7023 1364.98 85.7023C1354.05 85.7023 1343.92 91.4265 1338.28 100.788L1272.98 232.102L1207.68 100.788C1202.04 91.4265 1191.91 85.7023 1180.98 85.7023C1163.77 85.7023 1149.82 99.6555 1149.82 116.868V312.838C1149.82 328.117 1162.2 340.502 1177.48 340.502C1192.76 340.502 1205.14 328.117 1205.14 312.838V206.102Z"
        class="fill-current"></path>
    <path fill-rule="evenodd" clip-rule="evenodd"
        d="M1496.38 285.902H1614.68L1630.1 323.208C1634.43 333.675 1644.64 340.502 1655.97 340.502C1676.24 340.502 1689.79 319.607 1681.51 301.096L1597.08 112.268C1589.85 96.1071 1573.8 85.7023 1556.1 85.7023C1538.38 85.7023 1522.31 96.1296 1515.1 112.317L1430.55 302.018C1422.48 320.107 1435.72 340.502 1455.53 340.502C1466.6 340.502 1476.57 333.83 1480.8 323.6L1496.38 285.902ZM1555.72 143.578L1596.12 241.13H1515.31L1555.72 143.578Z"
        class="fill-current"></path>
    <path
        d="M687.801 393.593C688.508 394.181 689.023 394.91 689.347 395.782C689.71 396.759 690.533 397.582 691.575 397.582H701.401C702.509 397.582 703.419 396.678 703.3 395.576C703.017 392.975 702.197 390.652 700.839 388.607C699.159 386.034 696.767 384.039 693.664 382.624C690.561 381.21 686.883 380.502 682.631 380.502C678.465 380.502 674.77 381.201 671.547 382.599C668.341 383.997 665.829 385.948 664.012 388.454C662.212 390.943 661.32 393.849 661.337 397.173C661.32 401.264 662.649 404.494 665.324 406.863C668.015 409.215 671.693 410.894 676.356 411.9L681.603 413.025C683.557 413.451 685.109 413.911 686.258 414.406C687.406 414.883 688.229 415.428 688.726 416.042C689.241 416.639 689.506 417.338 689.524 418.139C689.506 418.991 689.232 419.749 688.701 420.414C688.169 421.079 687.389 421.599 686.36 421.974C685.332 422.349 684.054 422.536 682.528 422.536C680.711 422.536 679.142 422.255 677.822 421.693C676.519 421.13 675.508 420.303 674.788 419.213C674.368 418.577 674.056 417.855 673.852 417.046C673.592 416.015 672.746 415.173 671.683 415.173H662.008C660.9 415.173 659.994 416.074 660.077 417.179C660.336 420.664 661.254 423.592 662.829 425.963C664.715 428.758 667.355 430.829 670.75 432.176C674.162 433.522 678.157 434.195 682.734 434.195C687.192 434.195 691.007 433.573 694.178 432.329C697.367 431.085 699.819 429.269 701.534 426.883C703.248 424.497 704.114 421.582 704.131 418.139C704.114 416.144 703.788 414.303 703.154 412.616C702.537 410.928 701.568 409.411 700.248 408.065C698.928 406.701 697.23 405.517 695.156 404.511C693.081 403.505 690.587 402.695 687.672 402.082L683.351 401.161C682.1 400.906 681.02 400.616 680.111 400.292C679.202 399.968 678.457 399.61 677.874 399.218C677.291 398.809 676.862 398.357 676.588 397.863C676.331 397.352 676.219 396.781 676.253 396.15C676.271 395.383 676.502 394.701 676.948 394.105C677.394 393.508 678.079 393.039 679.005 392.698C679.948 392.34 681.157 392.161 682.631 392.161C684.946 392.161 686.669 392.639 687.801 393.593Z"
        class="fill-current"></path>
    <path
        d="M859.44 381.218C858.335 381.218 857.44 382.114 857.44 383.218V390.673C857.44 391.777 858.335 392.673 859.44 392.673H871.282C872.386 392.673 873.282 393.568 873.282 394.673V431.582C873.282 432.686 874.177 433.582 875.282 433.582H885.375C886.48 433.582 887.375 432.686 887.375 431.582V394.673C887.375 393.568 888.27 392.673 889.375 392.673H901.217C902.321 392.673 903.217 391.777 903.217 390.673V383.218C903.217 382.114 902.321 381.218 901.217 381.218H859.44Z"
        class="fill-current"></path>
    <path
        d="M1089.6 383.218C1089.6 382.114 1090.5 381.218 1091.6 381.218H1101.9C1103.01 381.218 1103.9 382.114 1103.9 383.218V414.764C1103.9 418.752 1102.94 422.204 1101.02 425.119C1099.12 428.017 1096.46 430.258 1093.05 431.843C1089.64 433.411 1085.68 434.195 1081.17 434.195C1076.63 434.195 1072.65 433.411 1069.24 431.843C1065.82 430.258 1063.17 428.017 1061.26 425.119C1059.38 422.204 1058.43 418.752 1058.43 414.764V383.218C1058.43 382.114 1059.33 381.218 1060.43 381.218H1070.73C1071.84 381.218 1072.73 382.114 1072.73 383.218V413.536C1072.73 415.156 1073.09 416.605 1073.81 417.883C1074.53 419.144 1075.53 420.133 1076.8 420.849C1078.08 421.565 1079.54 421.923 1081.17 421.923C1082.81 421.923 1084.27 421.565 1085.54 420.849C1086.81 420.133 1087.8 419.144 1088.52 417.883C1089.24 416.605 1089.6 415.156 1089.6 413.536V383.218Z"
        class="fill-current"></path>
    <path fill-rule="evenodd" clip-rule="evenodd"
        d="M1260 431.582C1260 432.686 1260.9 433.582 1262 433.582H1280.27C1285.62 433.582 1290.25 432.542 1294.18 430.463C1298.11 428.366 1301.14 425.366 1303.28 421.463C1305.43 417.542 1306.5 412.855 1306.5 407.4C1306.5 401.945 1305.42 397.267 1303.26 393.363C1301.11 389.443 1298.06 386.443 1294.1 384.363C1290.16 382.267 1285.48 381.218 1280.06 381.218H1262C1260.9 381.218 1260 382.114 1260 383.218V431.582ZM1279.75 421.514H1276.3C1275.19 421.514 1274.3 420.618 1274.3 419.514V395.286C1274.3 394.182 1275.19 393.286 1276.3 393.286H1279.34C1282.08 393.286 1284.4 393.704 1286.28 394.539C1288.19 395.374 1289.63 396.815 1290.6 398.86C1291.6 400.906 1292.1 403.752 1292.1 407.4C1292.1 411.048 1291.61 413.894 1290.63 415.94C1289.67 417.985 1288.26 419.426 1286.41 420.261C1284.58 421.096 1282.36 421.514 1279.75 421.514Z"
        class="fill-current"></path>
    <path
        d="M1476.87 431.582C1476.87 432.686 1475.98 433.582 1474.87 433.582H1464.57C1463.47 433.582 1462.57 432.686 1462.57 431.582V383.218C1462.57 382.114 1463.47 381.218 1464.57 381.218H1474.87C1475.98 381.218 1476.87 382.114 1476.87 383.218V431.582Z"
        class="fill-current"></path>
    <path fill-rule="evenodd" clip-rule="evenodd"
        d="M1680.56 422.153C1682.84 418.147 1683.98 413.23 1683.98 407.4C1683.98 401.57 1682.84 396.661 1680.56 392.673C1678.28 388.667 1675.2 385.642 1671.33 383.596C1667.45 381.534 1663.13 380.502 1658.37 380.502C1653.57 380.502 1649.23 381.534 1645.35 383.596C1641.5 385.642 1638.43 388.667 1636.15 392.673C1633.88 396.661 1632.75 401.57 1632.75 407.4C1632.75 413.195 1633.88 418.096 1636.15 422.102C1638.43 426.09 1641.5 429.124 1645.35 431.204C1649.23 433.267 1653.57 434.298 1658.37 434.298C1663.13 434.298 1667.45 433.275 1671.33 431.23C1675.2 429.167 1678.28 426.142 1680.56 422.153ZM1668.01 399.474C1668.85 401.622 1669.27 404.264 1669.27 407.4C1669.27 410.536 1668.85 413.187 1668.01 415.352C1667.19 417.499 1665.96 419.136 1664.33 420.261C1662.72 421.369 1660.73 421.923 1658.37 421.923C1656 421.923 1654 421.369 1652.37 420.261C1650.76 419.136 1649.54 417.499 1648.7 415.352C1647.87 413.187 1647.46 410.536 1647.46 407.4C1647.46 404.264 1647.87 401.622 1648.7 399.474C1649.54 397.309 1650.76 395.673 1652.37 394.565C1654 393.44 1656 392.877 1658.37 392.877C1660.73 392.877 1662.72 393.44 1664.33 394.565C1665.96 395.673 1667.19 397.309 1668.01 399.474Z"
        class="fill-current"></path>
</svg>
