<svg width="33" height="32" viewBox="0 0 33 32" fill="none" xmlns="http://www.w3.org/2000/svg">
<path d="M16.5 25.6667C16.1318 25.6667 15.8333 25.3682 15.8333 25C15.8333 24.6318 16.1318 24.3333 16.5 24.3333C16.8682 24.3333 17.1667 24.6318 17.1667 25C17.1667 25.3682 16.8682 25.6667 16.5 25.6667Z" stroke="currentColor" stroke-width="2.66667"/>
<path d="M27.7224 12.4124C28.152 12.8419 28.8485 12.8418 29.278 12.4121C29.7075 11.9824 29.7073 11.2859 29.2777 10.8564L27.7224 12.4124ZM11.0555 18.488C10.6259 18.9175 10.6259 19.614 11.0555 20.0436C11.4851 20.4732 12.1816 20.4732 12.6112 20.0436L11.0555 18.488ZM12.2414 6.07233C11.651 6.21512 11.288 6.80957 11.4308 7.40006C11.5736 7.99056 12.1681 8.35349 12.7586 8.2107L12.2414 6.07233ZM7.0559 14.8084C6.62611 15.2378 6.62577 15.9343 7.05513 16.3641C7.48449 16.7938 8.18097 16.7942 8.61076 16.3648L7.0559 14.8084ZM12.8586 13.7067C13.4329 13.5086 13.738 12.8825 13.5399 12.3082C13.3419 11.7339 12.7158 11.4288 12.1414 11.6268L12.8586 13.7067ZM17.2257 10.9195C16.619 10.8869 16.1008 11.3522 16.0683 11.9589C16.0357 12.5655 16.501 13.0837 17.1077 13.1163L17.2257 10.9195ZM24.3889 16.3678C24.8186 16.7973 25.5151 16.7972 25.9446 16.3676C26.3741 15.9379 26.374 15.2415 25.9444 14.8119L24.3889 16.3678ZM17.1667 17.3667L17.2767 16.2722L17.2767 16.2722L17.1667 17.3667ZM17.7223 17.4466L17.5658 18.5354L17.925 16.3654L17.7223 17.4466ZM3.72196 10.8629C3.29251 11.2926 3.29271 11.9891 3.72241 12.4185C4.1521 12.848 4.84859 12.8478 5.27804 12.4181L3.72196 10.8629ZM9.02275 9.63637C9.55831 9.34958 9.75998 8.68293 9.47319 8.14737C9.1864 7.61181 8.51976 7.41015 7.9842 7.69693L9.02275 9.63637ZM6.61115 4.5555C6.18157 4.12592 5.48509 4.12592 5.05552 4.5555C4.62594 4.98507 4.62594 5.68155 5.05551 6.11113L6.61115 4.5555ZM23.7222 24.7778C24.1518 25.2074 24.8482 25.2074 25.2778 24.7778C25.7074 24.3482 25.7074 23.6517 25.2778 23.2222L23.7222 24.7778ZM16.503 7.76665C20.8845 7.76665 24.8494 9.54075 27.7224 12.4124L29.2777 10.8564C26.0091 7.58926 21.4912 5.56665 16.503 5.56665V7.76665ZM12.6112 20.0436C13.6073 19.0475 14.9802 18.4333 16.4987 18.4333V16.2333C14.3733 16.2333 12.4473 17.0961 11.0555 18.488L12.6112 20.0436ZM12.7586 8.2107C13.9581 7.92062 15.2118 7.76665 16.503 7.76665V5.56665C15.0363 5.56665 13.609 5.74162 12.2414 6.07233L12.7586 8.2107ZM8.61076 16.3648C9.7955 15.1813 11.2438 14.2635 12.8586 13.7067L12.1414 11.6268C10.2053 12.2944 8.47203 13.3937 7.0559 14.8084L8.61076 16.3648ZM17.1077 13.1163C19.9456 13.2687 22.5018 14.4811 24.3889 16.3678L25.9444 14.8119C23.6882 12.5563 20.6258 11.1021 17.2257 10.9195L17.1077 13.1163ZM16.4987 18.4333C16.6874 18.4333 16.8735 18.4428 17.0566 18.4612L17.2767 16.2722C17.0205 16.2465 16.761 16.2333 16.4987 16.2333V18.4333ZM17.0566 18.4612C17.2131 18.4769 17.3675 18.4992 17.5195 18.5277L17.925 16.3654C17.7117 16.3254 17.4955 16.2942 17.2767 16.2722L17.0566 18.4612ZM17.0102 18.4555L17.5658 18.5354L17.8787 16.3577L17.3231 16.2779L17.0102 18.4555ZM5.27804 12.4181C6.37852 11.317 7.63963 10.377 9.02275 9.63637L7.9842 7.69693C6.40894 8.54047 4.97378 9.61036 3.72196 10.8629L5.27804 12.4181ZM5.05551 6.11113L23.7222 24.7778L25.2778 23.2222L6.61115 4.5555L5.05551 6.11113Z" fill="currentColor"/>
</svg>
