<svg width="32" height="32" viewBox="0 0 32 32" fill="none" xmlns="http://www.w3.org/2000/svg">
<path d="M4 11.6405C7.07123 8.56751 11.3151 6.66666 16.003 6.66666C20.6878 6.66666 24.9292 8.56501 28 11.6344M7.33333 15.5866C9.55168 13.3705 12.615 12 15.9984 12C19.3834 12 22.4481 13.3718 24.6667 15.5899M11.3333 19.2658C12.5273 18.0718 14.1768 17.3333 15.9987 17.3333C17.822 17.3333 19.4725 18.0729 20.6667 19.2684" stroke="currentColor" stroke-width="2.66667" stroke-linecap="round"/>
<path d="M16 26C15.4477 26 15 25.5523 15 25C15 24.4477 15.4477 24 16 24C16.5523 24 17 24.4477 17 25C17 25.5523 16.5523 26 16 26Z" stroke="currentColor" stroke-width="2"/>
</svg>
